<?xml version="1.0" standalone="no"?>
<!DOCTYPE svg PUBLIC "-//W3C//DTD SVG 20010904//EN"
 "http://www.w3.org/TR/2001/REC-SVG-20010904/DTD/svg10.dtd">
<svg version="1.0" xmlns="http://www.w3.org/2000/svg"
 width="388.000000pt" height="388.000000pt" viewBox="0 0 388.000000 388.000000"
 preserveAspectRatio="xMidYMid meet">
<metadata>
Created by potrace 1.11, written by Peter Selinger 2001-2013
</metadata>
<g transform="translate(0.000000,388.000000) scale(0.100000,-0.100000)"
fill="#000000" stroke="none">
<path d="M1442 2888 c-9 -9 -12 -130 -12 -485 l0 -473 -131 0 c-72 0 -139 -5
-150 -10 -16 -9 -19 -22 -19 -79 l0 -69 -61 -4 c-54 -4 -66 -9 -90 -36 -29
-32 -29 -33 -29 -170 0 -89 5 -146 13 -162 16 -33 72 -60 125 -60 l42 0 0 -72
c0 -78 15 -115 61 -147 17 -11 25 -27 26 -51 1 -25 10 -43 32 -62 l31 -28 280
0 c195 0 287 4 305 12 30 13 55 55 55 90 0 15 11 29 30 40 39 22 69 88 70 151
l0 47 388 0 c382 0 388 0 432 23 26 13 57 40 75 65 l30 44 3 440 c2 317 -1
444 -9 454 -8 10 -49 14 -158 16 l-146 3 -3 254 c-1 167 -6 259 -13 268 -16
18 -1159 19 -1177 1z m1110 -715 c-2 -653 -1 -687 33 -766 7 -16 -9 -17 -276
-15 l-284 3 -3 127 -3 127 142 3 c122 3 143 5 153 21 8 12 8 22 0 35 -10 15
-31 17 -153 20 l-141 3 0 59 0 60 138 0 c142 0 162 5 162 41 0 10 -6 21 -12
26 -7 4 -191 10 -408 13 l-395 5 -2 427 c-1 236 0 435 3 443 5 13 73 15 528
15 l521 0 -3 -647z m318 -289 c0 -325 -3 -400 -14 -423 -49 -93 -187 -76 -216
27 -6 22 -10 188 -10 414 l0 377 113 3 c61 2 115 2 120 0 4 -2 7 -181 7 -398z
m-932 -345 c2 -297 2 -307 -19 -332 l-20 -27 -326 0 c-290 0 -328 2 -345 17
-17 15 -18 39 -18 334 l0 318 363 -2 362 -2 3 -306z m-810 19 l-3 -133 -45 0
-45 0 -3 119 c-1 66 0 126 2 133 3 8 23 13 51 13 l46 0 -3 -132z m710 -480
c-4 -10 -69 -14 -271 -16 -233 -2 -267 0 -267 13 0 13 35 15 271 15 212 0 270
-3 267 -12z"/>
<path d="M1582 2688 c-8 -8 -12 -53 -12 -138 0 -85 4 -130 12 -138 17 -17 859
-17 876 0 17 17 17 259 0 276 -17 17 -859 17 -876 0z m808 -138 l0 -70 -370 0
-370 0 0 70 0 70 370 0 370 0 0 -70z"/>
<path d="M1582 2288 c-8 -8 -12 -51 -12 -128 0 -77 4 -120 12 -128 17 -17 859
-17 876 0 18 18 14 46 -7 58 -12 6 -104 10 -230 10 l-211 0 0 88 c0 55 -4 92
-12 100 -17 17 -399 17 -416 0z m348 -128 l0 -60 -140 0 -140 0 0 60 0 60 140
0 140 0 0 -60z"/>
<path d="M2142 2288 c-6 -6 -12 -20 -12 -29 0 -35 23 -40 185 -37 138 3 159 5
169 21 8 12 8 22 0 35 -10 15 -31 17 -170 20 -116 2 -163 -1 -172 -10z"/>
<path d="M2400 1925 c-26 -32 13 -81 48 -59 34 22 22 74 -18 74 -10 0 -23 -7
-30 -15z"/>
<path d="M2400 1725 c-26 -32 13 -81 48 -59 34 22 22 74 -18 74 -10 0 -23 -7
-30 -15z"/>
</g>
</svg>
